<?xml version="1.0" standalone="no"?><!DOCTYPE svg PUBLIC "-//W3C//DTD SVG 1.1//EN" "http://www.w3.org/Graphics/SVG/1.1/DTD/svg11.dtd"><svg t="1582978774476" class="icon" viewBox="0 0 1024 1024" version="1.1" xmlns="http://www.w3.org/2000/svg" p-id="3769" xmlns:xlink="http://www.w3.org/1999/xlink" width="200" height="200"><defs><style type="text/css"></style></defs><path d="M303.21686755 563.69868042c-2.87214934 0-5.30242877-2.43027941-5.30242876-5.30242877V204.90100052c0-2.87214934 2.43027941-5.30242877 5.30242876-5.30242877s5.30242877 2.43027941 5.30242877 5.30242877v353.49525113c0 2.87214934-2.43027941 5.30242877-5.30242877 5.30242877zM187.22623842 824.40142825c-2.87214934 0-5.30242877-2.43027941-5.30242877-5.30242877v-201.49229291c0-2.87214934 2.43027941-5.30242877 5.30242877-5.30242876s5.30242877 2.43027941 5.30242876 5.30242876V819.09899948c0 2.87214934-2.20934575 5.30242877-5.30242876 5.30242877zM233.62249008 824.40142825c-2.87214934 0-5.30242877-2.43027941-5.30242877-5.30242877v-201.49229291c0-2.87214934 2.43027941-5.30242877 5.30242877-5.30242876s5.30242877 2.43027941 5.30242876 5.30242876V819.09899948c0 2.87214934-2.43027941 5.30242877-5.30242876 5.30242877zM280.01874173 824.40142825c-2.87214934 0-5.30242877-2.43027941-5.30242876-5.30242877v-201.49229291c0-2.87214934 2.43027941-5.30242877 5.30242876-5.30242876s5.30242877 2.43027941 5.30242876 5.30242876V819.09899948c0 2.87214934-2.43027941 5.30242877-5.30242876 5.30242877zM326.41499339 824.40142825c-2.87214934 0-5.30242877-2.43027941-5.30242877-5.30242877v-201.49229291c0-2.87214934 2.43027941-5.30242877 5.30242877-5.30242876s5.30242877 2.43027941 5.30242874 5.30242876V819.09899948c0 2.87214934-2.43027941 5.30242877-5.30242874 5.30242877zM372.81124503 824.40142825c-2.87214934 0-5.30242877-2.43027941-5.30242876-5.30242877v-201.49229291c0-2.87214934 2.43027941-5.30242877 5.30242876-5.30242876s5.30242877 2.43027941 5.30242876 5.30242876V819.09899948c0 2.87214934-2.43027941 5.30242877-5.30242876 5.30242877zM419.20749669 824.40142825c-2.87214934 0-5.30242877-2.43027941-5.30242876-5.30242877v-201.49229291c0-2.87214934 2.43027941-5.30242877 5.30242876-5.30242876s5.30242877 2.43027941 5.30242876 5.30242876V819.09899948c0 2.87214934-2.43027941 5.30242877-5.30242876 5.30242877z" fill="#222222" p-id="3770"></path><path d="M171.09801717 565.02428761h264.0167658v27.1749474H171.09801717z" fill="#FFDE52" p-id="3771"></path><path d="M435.33571793 597.50166377H171.09801717c-2.87214934 0-5.30242877-2.43027941-5.30242875-5.30242876V565.02428761c0-2.87214934 2.43027941-5.30242877 5.30242875-5.30242876h264.0167658c2.87214934 0 5.30242877 2.43027941 5.30242876 5.30242876v27.1749474c0.22093497 2.87214934-2.20934575 5.30242877-5.0814938 5.30242876z m-258.935272-10.60485753h253.41190829v-16.57008988H176.40044593v16.57008988z" fill="#222222" p-id="3772"></path><path d="M667.75884483 819.09899948H419.42843166l-55.23363336-397.24028841h358.57674493z" fill="#FFFFFF" p-id="3773"></path><path d="M667.75884483 824.40142825H419.42843166c-2.65121438 0-4.86056012-1.98841078-5.30242877-4.63962518l-55.23363334-397.2402884c-0.22093497-1.54654215 0.22093497-3.09308301 1.32560718-4.19775654s2.43027941-1.76747583 3.97682157-1.76747582h358.57674493c1.54654215 0 3.09308301 0.66280359 3.97682157 1.76747582s1.54654215 2.65121438 1.3256072 4.19775654l-55.23363337 397.2402884c-0.22093497 2.65121438-2.65121438 4.63962516-5.0814938 4.63962518z m-243.69078801-10.60485753h239.05116286l53.6870912-386.63543089H370.38096562l53.6870912 386.63543089z" fill="#222222" p-id="3774"></path><path d="M635.28146868 781.7610632h-183.37566086c-5.30242877 0-9.72111895-3.97682157-10.38392385-9.05831538l-41.97756017-301.57563576c-0.88373856-6.40710098 3.97682157-12.15139967 10.38392257-12.15139967h267.1098488c6.40710098 0 11.26766112 5.7442974 10.38392256 12.15139967l-41.97756015 301.57563576c-0.44186863 5.30242877-4.86056012 9.05831537-10.1629889 9.05831538z" fill="#FF9060" p-id="3775"></path><path d="M681.67772034 686.3173455c-56.78017421 0-105.38577162-45.95438302-140.51436215-133.00258764-26.07027518-64.73381735-35.79139413-130.13043958-36.0123291-130.79324319-0.44186863-2.87214934 1.54654215-5.52336372 4.4186915-5.96523236 2.87214934-0.44186863 5.52336372 1.54654215 5.96523235 4.4186902 0.44186863 2.65121438 38.88447714 254.73751547 165.92183244 254.73751547 14.36074413 0 25.40747158-5.30242877 34.24485327-16.34915491 44.8497095-56.33830558 3.97682157-234.63247265 3.53495163-236.39994977-0.66280359-2.87214934 1.10467223-5.7442974 3.97682158-6.40710099 2.87214934-0.66280359 5.7442974 1.10467223 6.40710228 3.97682157 1.76747583 7.51177452 42.41943008 185.14313798-5.52336372 245.45826513-10.60485751 13.69794053-24.96560165 20.32597648-42.41943008 20.32597649z" fill="#222222" p-id="3776"></path><path d="M643.67698045 340.33386889m-24.08186308 0a24.08186438 24.08186438 0 1 0 48.16372746 0 24.08186438 24.08186438 0 1 0-48.16372746 0Z" fill="#FFF4C7" p-id="3777"></path><path d="M643.67698045 369.71816203c-16.12822124 0-29.38429315-13.2560719-29.38429185-29.38429314s13.2560719-29.38429315 29.38429185-29.38429316 29.38429315 13.2560719 29.38429315 29.38429316-13.03513695 29.38429315-29.38429315 29.38429314z m0-47.94279382c-10.38392255 0-18.77943563 8.39551178-18.77943433 18.77943564s8.39551178 18.77943563 18.77943433 18.77943433 18.77943563-8.39551178 18.77943564-18.77943433-8.39551178-18.77943563-18.77943564-18.77943564z" fill="#222222" p-id="3778"></path><path d="M554.64036505 264.99519401m-20.54691145 0a20.54691145 20.54691145 0 1 0 41.09382289 0 20.54691145 20.54691145 0 1 0-41.09382289 0Z" fill="#FFF4C7" p-id="3779"></path><path d="M554.64036505 290.84453422c-14.36074413 0-25.84934021-11.70952975-25.84934022-25.84934021s11.70952975-25.84934021 25.84934022-25.84934021c14.36074413 0 25.84934021 11.70952975 25.84934021 25.84934021s-11.70952975 25.84934021-25.84934021 25.84934021z m0-41.31475787c-8.39551178 0-15.24448269 6.84897091-15.24448269 15.24448269s6.84897091 15.24448269 15.24448269 15.24448269c8.39551178 0 15.24448269-6.84897091 15.24448268-15.24448269s-6.84897091-15.24448269-15.24448268-15.24448269z" fill="#222222" p-id="3780"></path><path d="M482.61570685 406.83516335c1.10467223-3.31401797 1.54654215-6.62803595 1.54654216-10.38392386 0-19.0003693-15.46541765-34.24485198-34.24485199-34.24485197-19.0003693 0-34.24485198 15.46541765-34.24485327 34.24485197 0 3.53495294 0.66280359 7.06990459 1.54654215 10.38392386" fill="#FFF4C7" p-id="3781"></path><path d="M482.61570685 412.13759212c-0.44186863 0-1.10467223 0-1.54654087-0.22093497-2.87214934-0.88373856-4.4186902-3.7558866-3.53495291-6.62803596 0.88373856-2.87214934 1.3256072-5.7442974 1.32560718-8.61644674 0-15.90728628-13.03513695-28.94242322-28.94242323-28.94242322s-28.94242322 13.03513695-28.94242451 28.94242322c0 2.87214934 0.44186863 5.96523235 1.32560719 8.61644674 0.88373856 2.87214934-0.66280359 5.7442974-3.53495164 6.62803596-2.87214934 0.88373856-5.7442974-0.66280359-6.62803594-3.53495295-1.10467223-3.7558866-1.76747583-7.73270818-1.76747712-11.93046471 0-21.87251863 17.6747621-39.54728074 39.54728202-39.54728074s39.54728074 17.6747621 39.54728075 39.54728074c0 3.97682157-0.66280359 7.95364315-1.76747582 11.93046471-0.66280359 2.20934575-2.65121438 3.7558866-5.0814951 3.75588792z" fill="#222222" p-id="3782"></path><path d="M932.6593479 503.1626183c19.6631729-5.7442974 36.0123291 14.36074413 26.73307877 32.47737616-3.53495294 6.84897091-8.39551178 13.69794053-14.80261406 19.00037059-22.75625718 18.77943563-58.1057814 13.69794053-58.10578141 13.69794053s1.76747583-35.57045917 24.52373303-54.3498948c6.62803595-5.30242877 14.13981046-8.8373817 21.65158367-10.82579248z" fill="#FFFFFF" p-id="3783"></path><path d="M897.53075735 574.30353794c-6.62803595 0-11.26766112-0.66280359-11.70952973-0.66280359-2.65121438-0.44186863-4.63962516-2.87214934-4.63962517-5.52336374 0-1.54654215 2.20934575-38.22167355 26.5121438-58.32671636 6.40710098-5.30242877 14.36074413-9.27925033 23.4190608-11.93046471 11.04672615-3.09308301 22.53532223 0.22093497 29.82616177 9.05831666 7.29083955 8.8373817 8.39551178 20.76784641 3.31401796 30.93083401-4.4186902 8.39551178-9.72111895 15.46541765-16.12822123 20.7678464-16.12822124 13.47700687-37.55886996 15.68635132-50.5940082 15.68635133z m-5.08149379-10.60485752c10.16298889 0.44186863 33.14017975 0 48.82653107-13.03513694 5.30242877-4.4186902 9.94205392-10.16298889 13.47700687-17.45382844 3.97682157-7.73270818 1.54654215-15.02354772-1.98841078-19.44223921-3.53495294-4.19775653-10.38392255-7.95364315-18.77943564-5.7442974-7.73270818 2.20934575-14.36074413 5.52336372-19.66317287 9.94205392-15.68635132 13.2560719-20.54691145 35.57045917-21.87251865 45.73344807z m40.21008434-60.53606212z" fill="#222222" p-id="3784"></path><path d="M890.68178774 819.09899948H656.93305236c-9.05831537 0-16.57008987-7.29083955-16.57008989-16.57008988V565.46615623c0-9.05831537 7.29083955-16.57008987 16.57008989-16.57008986h233.74873538c9.05831537 0 16.57008987 7.29083955 16.57008988 16.57008986v237.06275337c0 9.05831537-7.29083955 16.57008987-16.57008988 16.57008988z" fill="#FFFFFF" p-id="3785"></path><path d="M890.68178774 824.40142825H656.93305236c-11.93046471 0-21.65158367-9.72111895-21.65158368-21.65158499V565.46615623c0-11.93046471 9.72111895-21.65158367 21.65158368-21.65158366h233.74873538c11.93046471 0 21.65158367 9.72111895 21.65158367 21.65158366v237.06275337c0.22093497 12.15139967-9.50018529 21.87251863-21.65158367 21.87251865zM656.93305236 554.19849511c-6.18616732 0-11.26766112 5.0814938-11.26766112 11.26766112v237.06275337c0 6.18616732 5.0814938 11.26766112 11.26766112 11.26766112h233.74873538c6.18616732 0 11.26766112-5.0814938 11.26766112-11.26766112V565.46615623c0-6.18616732-5.0814938-11.26766112-11.26766112-11.26766112H656.93305236z" fill="#222222" p-id="3786"></path><path d="M872.34422075 797.66834947h-197.0736014c-7.73270818 0-13.9188755-6.18616732-13.9188755-13.9188755v-199.72481707c0-7.73270818 6.18616732-13.9188755 13.9188755-13.9188755h197.0736014c7.73270818 0 13.9188755 6.18616732 13.9188755 13.9188755V783.74947397c0 7.73270818-6.18616732 13.9188755-13.9188755 13.9188755z" fill="#FFF4C7" p-id="3787"></path><path d="M921.8335567 713.93416154l-20.98878135 18.11663203 2.4302807-55.675502v-1.98841077c0-30.48896537-24.74466798-55.23363335-55.23363335-55.23363337s-55.23363335 24.74466798-55.23363336 55.23363337v1.98841077l5.96523236 129.90950464c0.44186863 7.06990459 6.40710098 12.5932683 13.47700687 12.5932683h71.3618533c7.29083955 0 13.2560719-5.7442974 13.47700686-13.03513693l1.10467222-23.4190608 44.8497108-50.59400818c15.02354772-20.76784641-3.09308301-32.91924479-21.20971505-17.89569706z" fill="#FFDE52" p-id="3788"></path><path d="M883.61188187 824.40142825h-71.3618533c-9.94205392 0-18.11663203-7.73270818-18.77943562-17.67476341l-5.96523236-130.1304383v-0.88373856-1.10467223c0-33.36111472 27.17494739-60.53606211 60.53606211-60.53606212s60.53606211 27.17494739 60.53606211 60.53606212v2.20934445l-1.98841078 43.52410362 11.70952974-10.16298889c10.82579248-9.05831537 23.41906079-10.60485751 30.70990035-3.75588661 5.52336372 5.0814938 7.95364315 15.46541765-1.76747712 28.94242322 0 0.22093497-0.22093497 0.22093497-0.44186863 0.44186863l-43.52410232 49.04746603-1.10467352 21.65158498c-0.22093497 9.94205392-8.39551178 17.89569707-18.55850066 17.89569707z m-85.50166377-147.14239812l5.96523236 129.02576608c0.22093497 4.19775653 3.97682157 7.51177452 8.17457811 7.51177451h71.3618533c4.4186902 0 7.95364315-3.53495294 8.1745781-7.95364314l1.10467223-23.4190608c0-1.10467223 0.44186863-2.43027941 1.32560718-3.31401798l44.62877584-50.37307322c5.30242877-7.51177452 5.30242877-12.81420326 3.09308301-14.80261404-2.65121438-2.43027941-9.50018529-1.76747583-16.57008987 4.19775652l-20.98878009 18.11663203c-1.54654215 1.3256072-3.97682157 1.76747583-5.74429739 0.6628036-1.98841078-0.88373856-3.09308301-2.87214934-2.87214933-5.08149509l2.4302794-54.79176343v-0.88373856-0.88373726-0.6628036c0-27.61681602-22.31438726-49.9312046-49.93120329-49.93120458s-49.9312046 22.31438726-49.93120459 49.93120458v1.54654086c0 0.44186863 0 0.66280359-0.22093497 1.10467352z" fill="#222222" p-id="3789"></path><path d="M972.64849857 713.93416154l-20.98878008 18.11663203 2.43027941-55.675502v-1.98841077c0-30.48896537-24.74466798-55.23363335-55.23363335-55.23363337s-55.23363335 24.74466798-55.23363206 55.23363337v1.98841077l5.96523236 129.90950464c0.44186863 7.06990459 6.40710098 12.5932683 13.47700557 12.5932683h71.36185459c7.29083955 0 13.2560719-5.7442974 13.47700557-13.03513693l1.10467354-23.4190608 44.84970948-50.59400818c15.02354772-20.76784641-3.09308301-32.91924479-21.20971503-17.89569706z" fill="#FFDE52" p-id="3790"></path><path d="M934.42682501 824.40142825h-71.36185459c-9.94205392 0-18.11663203-7.73270818-18.77943433-17.67476341l-5.96523236-130.1304383v-0.88373856-1.10467223c0-33.36111472 27.17494739-60.53606211 60.53606082-60.53606212s60.53606211 27.17494739 60.53606212 60.53606212v2.20934445l-1.98841079 43.52410362 11.70952974-10.16298889c10.82579248-9.05831537 23.41906079-10.60485751 30.70990034-3.75588661 5.52336372 5.0814938 7.95364315 15.46541765-1.76747582 28.94242322 0 0.22093497-0.22093497 0.22093497-0.44186993 0.44186863l-43.52410231 49.04746603-1.10467221 21.65158498c-0.22093497 9.94205392-8.39551178 17.89569707-18.55850068 17.89569707z m-85.50166375-147.14239812l5.96523235 129.02576608c0.22093497 4.19775653 3.97682157 7.51177452 8.17457681 7.51177451h71.36185459c4.4186902 0 7.95364315-3.53495294 8.17457682-7.95364314l1.10467352-23.4190608c0-1.10467223 0.44186863-2.43027941 1.32560719-3.31401798l44.62877454-50.37307322c5.30242877-7.51177452 5.30242877-12.81420326 3.09308431-14.80261404-2.65121438-2.43027941-9.50018529-1.76747583-16.57008989 4.19775652l-20.98878137 18.11663203c-1.54654215 1.3256072-3.97682157 1.76747583-5.74429738 0.6628036-1.98841078-0.88373856-3.09308301-2.87214934-2.87214935-5.08149509l2.43028072-54.79176343v-0.88373856-0.88373726-0.6628036c0-27.61681602-22.31438726-49.9312046-49.9312046-49.93120458s-49.9312046 22.31438726-49.9312046 49.93120458v1.54654086c0 0.44186863-0.22093497 0.66280359-0.22093366 1.10467352z" fill="#222222" p-id="3791"></path><path d="M968.89261196 358.00863099c0-22.0934536-17.23289347-40.21008433-39.10541211-41.53569152-2.20934575-21.87251863-20.76784641-38.88447714-43.30316865-38.88447717-19.88410785 0-36.67513269 13.47700687-41.97756145 31.59363761-5.96523235-3.53495294-12.81420326-5.7442974-20.1050415-5.74429739-20.32597648 0-37.11700133 15.68635132-38.66354348 35.57045917-7.95364315 5.7442974-13.03513695 15.02354772-13.03513695 25.62840524 0 17.45382844 14.13981046 31.5936376 31.5936376 31.59363889 1.98841078 0 3.97682157-0.22093497 5.96523236-0.66280359-0.22093497 1.3256072-0.44186863 2.87214934-0.44186863 4.19775525 0 15.24448269 12.37233334 27.83775099 27.83775099 27.83775099 7.73270818 0 14.58167909-3.09308301 19.66317289-8.17457681 2.87214934 7.95364315 10.38392255 13.69794053 19.22130425 13.69794052 2.43027941 0 4.63962516-0.44186863 6.62803596-1.10467222 4.86056012 6.84897091 12.81420326 11.48859609 21.87251863 11.48859478 14.58167909 0 26.51214381-11.93046471 26.51214381-26.5121438 0-6.62803595-2.43027941-12.5932683-6.40710099-17.23289346h2.65121438c22.53532223 0 41.0938229-18.55850066 41.09382289-41.75662649z" fill="#FFF4C7" p-id="3792"></path><path d="M904.82159691 448.81272351c-9.05831537 0-17.89569707-3.97682157-23.86092942-10.82579119-1.54654215 0.22093497-3.09308301 0.44186863-4.63962518 0.44186863-8.39551178 0-16.12822124-4.19775653-20.98878007-10.82579248-5.30242877 3.53495294-11.48859609 5.30242877-17.89569707 5.30242875-17.6747621 0-32.25644119-13.9188755-33.14017975-31.59363759h-0.22093496c-20.32597648 0-36.89606637-16.57008987-36.89606636-36.89606636 0-11.04672615 5.0814938-21.43065001 13.47700687-28.27962093 3.09308301-21.43065001 21.87251863-38.00073988 43.74503728-38.00073858 5.96523235 0 11.70952975 1.10467223 17.23289347 3.53495164 7.73270818-17.6747621 25.18653662-29.38429315 44.84970948-29.38429185 23.63999446 0 43.52410231 16.79102483 47.94279381 39.54728074 22.53532223 3.53495294 39.7682157 22.97719087 39.76821572 46.39625166 0 23.63999446-17.45382844 43.30316865-40.21008565 46.39625165 1.76747583 3.97682157 2.43027941 8.17457811 2.43028072 12.37233334 0 17.45382844-14.13981046 31.81457257-31.59363889 31.81457257z m-21.87251863-22.09345231c1.76747583 0 3.31401797 0.88373856 4.41869149 2.20934445 3.97682157 5.7442974 10.38392255 9.05831537 17.45382714 9.05831667 11.70952975 0 21.20971504-9.50018529 21.20971504-21.20971505 0-5.0814938-1.76747583-9.94205392-5.30242876-13.9188755-1.3256072-1.54654215-1.76747583-3.97682157-0.6628036-5.74429869s2.87214934-3.09308301 5.0814951-2.87214803h2.20934445c20.10504282 0 36.45419773-16.34915491 36.45419772-36.45419774 0-19.22130427-15.02354772-35.12859054-34.24485197-36.23326406-2.65121438-0.22093497-4.63962516-2.20934575-4.86056012-4.63962515-1.98841078-19.44223922-18.3375657-34.24485198-38.0007386-34.24485199-17.01195851 0-32.03550753 11.48859609-36.67513269 27.83775099-0.44186863 1.54654215-1.54654215 2.87214934-3.09308302 3.53495293-1.54654215 0.66280359-3.31401797 0.44186863-4.63962515-0.44186992-5.30242877-3.31401797-11.26766112-4.86056012-17.45382844-4.86055882-17.23289347 0-32.03550753 13.47700687-33.36111472 30.70989902-0.22093497 1.54654215-0.88373856 2.87214934-2.20934445 3.75588791-6.84897091 4.86056012-10.82579248 12.81420326-10.82579248 21.20971505 0 14.36074413 11.70952975 26.29120884 26.29120883 26.29120883 1.54654215 0 3.31401797-0.22093497 4.86056014-0.44186863 1.76747583-0.22093497 3.53495294 0.22093497 4.63962516 1.32560718 1.3256072 1.10467223 1.76747583 2.87214934 1.54654215 4.63962517-0.22093497 1.3256072-0.22093497 2.43027941-0.22093496 3.53495166 0 12.37233334 10.16298889 22.53532223 22.53532223 22.53532222 5.96523235 0 11.70952975-2.43027941 15.90728628-6.62803595 1.3256072-1.3256072 3.09308301-1.76747583 4.86056013-1.3256072 1.76747583 0.44186863 3.31401797 1.76747583 3.7558866 3.53495295 2.20934575 5.96523235 7.73270818 10.16298889 14.13981047 10.16298889 1.54654215 0 3.31401797-0.22093497 4.86055883-0.88373856 0.22093497-0.44186863 0.66280359-0.44186863 1.3256072-0.44186863z" fill="#222222" p-id="3793"></path><path d="M860.19282238 340.55480385s-18.55850066 18.77943563 4.19775523 38.66354217" fill="#FFFFFF" p-id="3794"></path><path d="M864.16964394 384.52077478c-1.3256072 0-2.43027941-0.44186863-3.53495293-1.32560719-8.39551178-7.29083955-12.81420326-15.46541765-13.03513694-24.30279804-0.44186863-12.81420326 8.17457811-21.65158367 8.61644673-22.09345361 1.98841078-1.98841078 5.30242877-2.20934575 7.51177322 0 1.98841078 1.98841078 2.20934575 5.30242877 0 7.51177451-0.22093497 0.22093497-5.96523235 6.40710098-5.52336244 14.36074413 0.22093497 5.7442974 3.31401797 11.26766112 9.500184 16.57008987 2.20934575 1.98841078 2.43027941 5.30242877 0.44186992 7.51177452-1.10467223 1.10467223-2.43027941 1.76747583-3.97682156 1.76747581z" fill="#222222" p-id="3795"></path><path d="M69.46813345 486.15065979c-23.19812583 0-42.64036505-18.3375657-43.74503726-41.75662649-0.44186863-9.94205392 2.43027941-19.44223922 7.95364313-27.39588236-8.61644674-9.05831537-13.69794053-20.54691145-14.13981045-33.14017975-1.3256072-28.50055458 20.76784641-52.80335264 49.04746603-54.12895983 7.51177452-0.44186863 15.02354772 0.88373856 22.09345361 3.7558866 6.84897091-7.29083955 16.12822124-11.48859609 26.07027387-12.15139838 20.98878007-0.88373856 38.88447714 15.24448269 39.7682157 36.23326277 0.66280359 15.24448269-7.73270818 29.60522682-21.65158368 36.23326277-2.65121438 1.3256072-5.7442974 0.22093497-7.06990458-2.43027942-1.3256072-2.65121438-0.22093497-5.7442974 2.43027943-7.06990458 9.94205392-4.86056012 16.12822124-15.02354772 15.46541764-26.07027517-0.44186863-7.29083955-3.53495294-14.13981046-9.05831666-19.0003693-5.52336372-4.86056012-12.37233334-7.51177452-19.88410785-7.06990588-8.39551178 0.44186863-15.90728628 4.4186902-20.76784511 11.04672745-1.54654215 1.98841078-4.4186902 2.65121438-6.62803596 1.54654086-6.40710098-3.31401797-13.47700687-4.86056012-20.76784641-4.41869019-22.53532223 1.10467223-40.21008433 20.32597648-39.10541211 43.08223367 0.44186863 11.48859609 5.52336372 21.65158367 14.36074413 29.16335819 1.10467223 0.88373856 1.76747583 2.20934575 1.76747711 3.7558866 0 1.3256072-0.44186863 2.87214934-1.32560718 3.97682157-5.96523235 6.62803595-8.8373817 15.02354772-8.39551306 23.86092942 0.88373856 18.3375657 16.34915491 32.47737616 34.6867219 31.5936389 13.47700687-0.66280359 24.96560165-9.27925033 29.60522681-21.65158497 1.10467223-2.65121438 3.97682157-4.19775653 6.84897091-3.09308302 2.65121438 1.10467223 4.19775653 3.97682157 3.09308301 6.84897092-6.18616732 16.57008987-21.43065001 27.83775099-39.10541211 28.72148825-0.22093497-0.44186863-0.88373856-0.44186863-1.54654086-0.44186863z" fill="#222222" p-id="3796"></path><path d="M196.50548875 488.13907058c-0.88373856 0-1.76747583-0.22093497-2.43027942-0.66280359l-113.56034971-59.87325852c-2.65121438-1.3256072-3.53495294-4.63962516-2.20934575-7.06990459 1.3256072-2.65121438 4.63962516-3.53495294 7.06990587-2.20934575l113.56034843 59.87325852c2.65121438 1.3256072 3.53495294 4.63962516 2.20934575 7.06990459-1.10467223 1.98841078-2.87214934 2.87214934-4.63962517 2.87214934zM207.77314987 467.81309409c-1.10467223 0-1.98841078-0.22093497-3.09308301-0.88373855l-103.83923076-72.02465689c-2.43027941-1.76747583-3.09308301-4.86056012-1.32560719-7.29083956 1.76747583-2.43027941 4.86056012-3.09308301 7.29083954-1.32560719l103.83923076 72.0246569c2.43027941 1.76747583 3.09308301 4.86056012 1.32560719 7.29083955-0.88373856 1.3256072-2.65121438 2.20934575-4.19775653 2.20934574z" fill="#222222" p-id="3797"></path></svg>