<?xml version="1.0" standalone="no"?><!DOCTYPE svg PUBLIC "-//W3C//DTD SVG 1.1//EN" "http://www.w3.org/Graphics/SVG/1.1/DTD/svg11.dtd"><svg t="1583548134941" class="icon" viewBox="0 0 1024 1024" version="1.1" xmlns="http://www.w3.org/2000/svg" p-id="103293" xmlns:xlink="http://www.w3.org/1999/xlink" width="200" height="200"><defs><style type="text/css"></style></defs><path d="M926.464 531.6608v-0.3072H97.536v0.3072H49.6128c-27.392 0-49.6128-23.04-49.6128-51.5584 0-16.2304 7.68-30.1568 17.7664-39.5776C189.2864 291.4816 512 0 512 0s322.56 291.4816 492.9536 440.5248a50.944 50.944 0 0 1 18.9952 39.5776c0 28.4672-22.1696 51.5584-49.6128 51.5584h-47.9232z m-51.3536 41.216v399.616c0 28.5184-22.2208 51.5072-49.664 51.5072h-164.5568c-27.4432 0-49.5616-23.04-49.5616-51.5072v-206.1824H412.7744v206.1824c0 28.4672-22.2208 51.5072-49.6128 51.5072H198.5536c-27.4432 0-49.664-22.9888-49.664-51.5072v-399.616h726.2208z" fill="#4396d5" p-id="103294"></path></svg>