<?xml version="1.0" standalone="no"?><!DOCTYPE svg PUBLIC "-//W3C//DTD SVG 1.1//EN" "http://www.w3.org/Graphics/SVG/1.1/DTD/svg11.dtd"><svg t="1583548614363" class="icon" viewBox="0 0 1024 1024" version="1.1" xmlns="http://www.w3.org/2000/svg" p-id="112288" xmlns:xlink="http://www.w3.org/1999/xlink" width="200" height="200"><defs><style type="text/css"></style></defs><path d="M810.376 937.681H197.921c-34.378 0-62.348-27.969-62.348-62.348V163.421c0-34.378 27.969-62.348 62.348-62.348h612.455c34.379 0 62.348 27.969 62.348 62.348v711.912c0 34.379-27.969 62.348-62.348 62.348zM197.921 121.073c-23.351 0-42.348 18.997-42.348 42.348v711.912c0 23.351 18.997 42.348 42.348 42.348h612.455c23.351 0 42.348-18.997 42.348-42.348V163.421c0-23.351-18.997-42.348-42.348-42.348H197.921z" fill="#323333" p-id="112289"></path><path d="M155.578 509.377h697.136v20H155.578z" fill="#D53260" p-id="112290"></path><path d="M239.724 410.784h-7c-6.6 0-12-5.4-12-12v-105c0-6.601 5.4-12 12-12h7c6.6 0 12 5.399 12 12v105c0 6.6-5.4 12-12 12z" fill="#3D71B7" p-id="112291"></path><path d="M239.724 416.784h-7c-9.925 0-18-8.075-18-18v-105c0-9.925 8.075-18 18-18h7c9.925 0 18 8.075 18 18v105c0 9.925-8.075 18-18 18z m-7-129c-3.309 0-6 2.691-6 6v105c0 3.309 2.691 6 6 6h7c3.309 0 6-2.691 6-6v-105c0-3.309-2.691-6-6-6h-7z" fill="#323333" p-id="112292"></path><path d="M195.637 557.749v267.887c0 24.875 20.165 45.039 45.039 45.039h526.946c24.875 0 45.039-20.164 45.039-45.039V557.749H195.637z" fill="#3D71B7" p-id="112293"></path><path d="M239.724 760.784h-7c-6.6 0-12-5.4-12-12v-105c0-6.601 5.4-12 12-12h7c6.6 0 12 5.399 12 12v105c0 6.6-5.4 12-12 12z" fill="#D53260" p-id="112294"></path><path d="M239.724 766.784h-7c-9.925 0-18-8.075-18-18v-105c0-9.925 8.075-18 18-18h7c9.925 0 18 8.075 18 18v105c0 9.925-8.075 18-18 18z m-7-129c-3.309 0-6 2.691-6 6v105c0 3.309 2.691 6 6 6h7c3.309 0 6-2.691 6-6v-105c0-3.309-2.691-6-6-6h-7z" fill="#323333" p-id="112295"></path></svg>