<?xml version="1.0" standalone="no"?><!DOCTYPE svg PUBLIC "-//W3C//DTD SVG 1.1//EN" "http://www.w3.org/Graphics/SVG/1.1/DTD/svg11.dtd"><svg t="1582979070152" class="icon" viewBox="0 0 1024 1024" version="1.1" xmlns="http://www.w3.org/2000/svg" p-id="6397" xmlns:xlink="http://www.w3.org/1999/xlink" width="200" height="200"><defs><style type="text/css"></style></defs><path d="M1002.212766 837.261617a54.468085 54.468085 0 0 1-53.378723-65.361702h-23.965958a54.489872 54.489872 0 0 1-64.27234 64.27234v23.965958a54.489872 54.489872 0 0 1 64.27234 64.27234h23.965958a54.489872 54.489872 0 0 1 64.27234-64.27234v-23.965958c-3.529532 0.697191-7.168 1.089362-10.893617 1.089362z m-65.361702 37.016511a76.843574 76.843574 0 0 0-26.122894-26.122894A76.843574 76.843574 0 0 0 936.851064 822.03234c6.449021 10.697532 15.425362 19.673872 26.122893 26.122894A76.647489 76.647489 0 0 0 936.851064 874.278128z" fill="#EA5A54" p-id="6398"></path><path d="M206.978723 448.185191v272.166128l21.787234 40.633192-21.787234 38.345532v149.961531h588.25532v-501.106383L501.106383 292.580766 206.978723 448.185191z m566.468086 479.319149h-544.680852V461.322894L501.106383 317.222128l272.340426 144.100766v466.181446z" fill="" p-id="6399"></path><path d="M315.914894 946.197787h196.085106v-370.382978h-196.085106v370.382978z m21.787234-348.595744h152.510638v326.80851h-152.510638v-326.80851zM577.361702 728.325447h152.510638v-152.510638h-152.510638v152.510638z m21.787234-130.723404h108.93617v108.93617h-108.93617v-108.93617z" fill="" p-id="6400"></path><path d="M577.361702 662.963745h152.510638v21.787234h-152.510638zM457.531915 728.325447a10.893617 10.893617 0 0 1 10.893617 10.893617v21.787234a10.893617 10.893617 0 0 1-21.787234 0v-21.787234a10.893617 10.893617 0 0 1 10.893617-10.893617zM642.723404 641.176511h21.787234v21.787234h-21.787234z" fill="" p-id="6401"></path><path d="M878.744511 609.693957L505.07166 360.121191 130.723404 605.292936v-159.460766L504.418043 214.342809l374.326468 239.507063z" fill="" p-id="6402"></path><path d="M505.202383 333.976511l351.754894 234.975319v-103.184341L504.243745 240.073532 152.510638 457.96766v107.018893z" fill="#EA5A54" p-id="6403"></path><path d="M98.042553 669.804936v-13.70417a31.155745 31.155745 0 0 1-36.733276-36.733277h-13.682383A31.155745 31.155745 0 0 1 10.893617 656.100766v13.70417a31.155745 31.155745 0 0 1 36.733277 36.733277h13.70417A31.155745 31.155745 0 0 1 98.042553 669.804936z" fill="#EA5A54" p-id="6404"></path><path d="M98.042553 669.804936v-13.70417a31.155745 31.155745 0 0 1-36.733276-36.733277h-13.682383A31.155745 31.155745 0 0 1 10.893617 656.100766v13.70417a31.155745 31.155745 0 0 1 36.733277 36.733277h13.70417A31.155745 31.155745 0 0 1 98.042553 669.804936z" fill="#EA5A54" p-id="6405"></path><path d="M261.446809 750.112681a54.468085 54.468085 0 0 1-53.378724-65.361702h-23.965957a54.489872 54.489872 0 0 1-64.272341 64.27234v23.965958a54.489872 54.489872 0 0 1 64.272341 64.27234h23.965957a54.489872 54.489872 0 0 1 64.272341-64.27234v-23.965958c-3.529532 0.697191-7.168 1.089362-10.893617 1.089362z m-65.361703 37.01651a76.843574 76.843574 0 0 0-26.122893-26.122893A76.712851 76.712851 0 0 0 196.085106 734.861617c6.449021 10.697532 15.425362 19.673872 26.122894 26.122894A76.908936 76.908936 0 0 0 196.085106 787.129191zM897.634043 206.869787a103.859745 103.859745 0 0 1-99.95983-132.183149h-26.711149a103.859745 103.859745 0 0 1-128.283234 128.283234v26.689362a103.859745 103.859745 0 0 1 128.283234 128.283234h26.711149A103.859745 103.859745 0 0 1 925.957447 229.659234V202.969872a103.750809 103.750809 0 0 1-28.323404 3.899915zM784.340426 275.303489a126.365957 126.365957 0 0 0-58.978043-58.999829A126.409532 126.409532 0 0 0 784.340426 157.325617a126.496681 126.496681 0 0 0 58.999829 58.99983A126.365957 126.365957 0 0 0 784.340426 275.303489z" fill="#EA5A54" p-id="6406"></path></svg>